<svg xmlns="http://www.w3.org/2000/svg" xmlns:xlink="http://www.w3.org/1999/xlink" width="137" height="39" viewBox="0 0 137 39">
    <defs>
        <path id="a" d="M.285.273V31.64h2.613l3-.002v-2.483h-3.13v-26.4h3.13V.274z"/>
        <linearGradient id="b" x1="49.998%" x2="49.998%" y1="109.419%" y2="2.006%">
            <stop offset="0%" stop-color="#4F45C7"/>
            <stop offset="100%" stop-color="#1DCDAA"/>
        </linearGradient>
        <path id="d" d="M3.295.275H.085v2.48l3.128.003.002 26.397H.085v2.483h5.612V.273z"/>
        <linearGradient id="e" x1="50.002%" x2="50.002%" y1="109.429%" y2="2.006%">
            <stop offset="0%" stop-color="#4F45C7"/>
            <stop offset="100%" stop-color="#1DCDAA"/>
        </linearGradient>
        <path id="g" d="M9.514.224L.512 21.433h2.847L12.554.223z"/>
        <linearGradient id="h" x1="50.001%" x2="50.001%" y1="137.882%" y2="-20.977%">
            <stop offset="0%" stop-color="#4F45C7"/>
            <stop offset="100%" stop-color="#1DCDAA"/>
        </linearGradient>
        <path id="j" d="M.283.036h2.595v2.595H.283z"/>
        <linearGradient id="k" x1="49.999%" x2="49.999%" y1="409.656%" y2="-888.881%">
            <stop offset="0%" stop-color="#4F45C7"/>
            <stop offset="100%" stop-color="#1DCDAA"/>
        </linearGradient>
    </defs>
    <g fill="none" fill-rule="evenodd">
        <g fill="#3F404B">
            <path d="M38.565 38.506H35.27v-5.893h3.294v.677H36.06v1.827h2.408v.676H36.06v2.029h2.505zM45.946 35.553c0-.418-.038-.77-.114-1.059a1.721 1.721 0 0 0-.35-.699 1.352 1.352 0 0 0-.59-.385 2.62 2.62 0 0 0-.835-.12h-.678v4.522h.59c1.318 0 1.977-.753 1.977-2.26m.83-.057c0 .282-.022.553-.064.812a3.176 3.176 0 0 1-.207.72 2.417 2.417 0 0 1-.369.607c-.149.182-.335.337-.553.467a2.82 2.82 0 0 1-.763.3c-.29.07-.619.105-.988.105H42.59v-5.893h1.495c.904 0 1.578.238 2.022.71.446.474.668 1.198.668 2.172M54.6 36.455c0 .323-.044.618-.134.881a1.757 1.757 0 0 1-1.037 1.1c-.253.101-.543.152-.872.152-.36 0-.667-.05-.917-.144a1.569 1.569 0 0 1-.615-.41 1.62 1.62 0 0 1-.345-.632 2.906 2.906 0 0 1-.11-.825v-3.964h.79v3.9c0 .232.022.435.064.608.043.176.113.322.21.439a.92.92 0 0 0 .38.265c.156.06.345.09.57.09.42 0 .729-.123.93-.37.198-.246.299-.592.299-1.04v-3.892h.788v3.842zM62.428 38.285c-.464.196-.95.294-1.459.294-.818 0-1.448-.25-1.887-.747-.438-.497-.658-1.233-.658-2.207 0-.472.06-.898.181-1.28a2.8 2.8 0 0 1 .52-.971c.225-.266.496-.472.814-.616a2.59 2.59 0 0 1 1.074-.217c.27 0 .519.024.75.071.23.047.452.118.665.215v.788a2.743 2.743 0 0 0-1.388-.36c-.273-.001-.518.051-.738.155-.22.103-.407.253-.561.45a2.13 2.13 0 0 0-.355.722 3.476 3.476 0 0 0-.124.971c0 .764.152 1.34.457 1.727.304.388.75.581 1.339.581.248 0 .486-.029.714-.088.227-.058.445-.14.656-.246v.758zM69.456 36.505l-.98-3.151-.981 3.151h1.96zm1.488 2.002h-.86l-.402-1.286h-2.413l-.407 1.286h-.82l1.924-5.893h1.082l1.896 5.893zM77.914 33.299h-1.717v5.208h-.796v-5.208h-1.718v-.685h4.23zM83.148 33.29h-1.334v-.677h3.466v.677h-1.335v4.531h1.335v.685h-3.466v-.685h1.334zM92.565 35.58c0-.345-.026-.662-.077-.949a2.404 2.404 0 0 0-.25-.74 1.31 1.31 0 0 0-.446-.484 1.222 1.222 0 0 0-.66-.17c-.247 0-.462.06-.64.182a1.412 1.412 0 0 0-.44.496 2.498 2.498 0 0 0-.257.734 5.31 5.31 0 0 0-.006 1.848c.055.287.137.534.251.74.114.206.261.366.442.48.18.114.396.171.65.171.25 0 .464-.06.645-.182a1.43 1.43 0 0 0 .445-.496c.117-.21.203-.453.26-.731.056-.28.083-.58.083-.9m.82-.057c0 .529-.062.986-.184 1.371a2.855 2.855 0 0 1-.495.953 1.95 1.95 0 0 1-.733.558c-.28.122-.574.183-.884.183-.372 0-.697-.068-.973-.205a1.805 1.805 0 0 1-.688-.593 2.722 2.722 0 0 1-.405-.944c-.09-.371-.134-.79-.134-1.256 0-.522.062-.976.183-1.361.12-.385.286-.702.494-.953.209-.252.45-.437.73-.56.278-.121.572-.183.881-.183.373 0 .697.07.974.208.276.14.505.336.69.594.183.257.319.569.41.939.089.37.134.786.134 1.25M101.142 38.506h-1.028l-1.69-3.675-.486-1.18v4.855h-.737v-5.893h1.016l1.608 3.48.582 1.35v-4.83h.735zM47.761 11.983l2.416 5.839h-4.852l-.928 2.223h6.818l2.818 6.675h2.892L49.184 8.574zM20.897 5.512h-8.603V26.72h2.744V7.736h5.266c5.19 0 7.786 2.6 7.786 7.8 0 5.973-2.596 8.959-7.786 8.959h-3.04v2.225h3.633c6.624 0 9.937-3.727 9.937-11.183 0-6.682-3.313-10.025-9.937-10.025M64.673 5.512V26.72h2.555V9.784l12.78 16.936h2.7v-.979L67.374 5.511zM80.153 18.705l2.555 3.318V5.512h-2.555zM98.377 26.72h2.595V5.511h-2.595zM106.943 5.512v2.594h7.861V26.72h2.594V8.106h7.86V5.512z"/>
        </g>
        <g transform="translate(0 .16)">
            <mask id="c" fill="#fff">
                <use xlink:href="#a"/>
            </mask>
            <path fill="url(#b)" d="M.285.273V31.64h2.613l3-.002v-2.483h-3.13v-26.4h3.13V.274z" mask="url(#c)"/>
        </g>
        <g transform="translate(130.473 .16)">
            <mask id="f" fill="#fff">
                <use xlink:href="#d"/>
            </mask>
            <path fill="url(#e)" d="M3.295.275H.085v2.48l3.128.003.002 26.397H.085v2.483h5.612V.273z" mask="url(#f)"/>
        </g>
        <g transform="translate(35.324 5.287)">
            <mask id="i" fill="#fff">
                <use xlink:href="#g"/>
            </mask>
            <path fill="url(#h)" d="M9.514.224L.512 21.433h2.847L12.554.223z" mask="url(#i)"/>
        </g>
        <g transform="translate(88.881 24.089)">
            <mask id="l" fill="#fff">
                <use xlink:href="#j"/>
            </mask>
            <path fill="url(#k)" d="M.283 2.631h2.595V.036H.283z" mask="url(#l)"/>
        </g>
    </g>
</svg>
